<svg version="1.1" xmlns="http://www.w3.org/2000/svg" width="553" height="553"><desc>Created by Grid Painter http://grid-painter.appspot.com</desc><rect x="0" y="0" width="554" height="554" fill="#ffffff" stroke-width="0" /><path d="M216 0L216 24L240 24L240 0Z" fill="#000000" stroke-width="0" /><path d="M240 0L240 24L264 24L264 0Z" fill="#000000" stroke-width="0" /><path d="M264 0L264 24L288 24L288 0Z" fill="#000000" stroke-width="0" /><path d="M288 0L288 24L312 24L312 0Z" fill="#000000" stroke-width="0" /><path d="M312 0L312 24L336 24L336 0Z" fill="#000000" stroke-width="0" /><path d="M168 24L168 48L192 48L192 24Z" fill="#000000" stroke-width="0" /><path d="M192 24L192 48L216 48L216 24Z" fill="#000000" stroke-width="0" /><path d="M216 24L216 48L240 48L240 24Z" fill="#ff0000" stroke-width="0" /><path d="M240 24L240 48L264 48L264 24Z" fill="#ff0000" stroke-width="0" /><path d="M264 24L264 48L288 48L288 24Z" fill="#ff0000" stroke-width="0" /><path d="M288 24L288 48L312 48L312 24Z" fill="#ff0000" stroke-width="0" /><path d="M312 24L312 48L336 48L336 24Z" fill="#ff0000" stroke-width="0" /><path d="M336 24L336 48L360 48L360 24Z" fill="#000000" stroke-width="0" /><path d="M360 24L360 48L384 48L384 24Z" fill="#000000" stroke-width="0" /><path d="M144 48L144 72L168 72L168 48Z" fill="#000000" stroke-width="0" /><path d="M168 48L168 72L192 72L192 48Z" fill="#ff0000" stroke-width="0" /><path d="M192 48L192 72L216 72L216 48Z" fill="#ff0000" stroke-width="0" /><path d="M216 48L216 72L240 72L240 48Z" fill="#ff0000" stroke-width="0" /><path d="M240 48L240 72L264 72L264 48Z" fill="#ff0000" stroke-width="0" /><path d="M264 48L264 72L288 72L288 48Z" fill="#ff0000" stroke-width="0" /><path d="M288 48L288 72L312 72L312 48Z" fill="#ff0000" stroke-width="0" /><path d="M312 48L312 72L336 72L336 48Z" fill="#ff0000" stroke-width="0" /><path d="M336 48L336 72L360 72L360 48Z" fill="#ff0000" stroke-width="0" /><path d="M360 48L360 72L384 72L384 48Z" fill="#ff0000" stroke-width="0" /><path d="M384 48L384 72L408 72L408 48Z" fill="#000000" stroke-width="0" /><path d="M48 72L48 96L72 96L72 72Z" fill="#000000" stroke-width="0" /><path d="M72 72L72 96L96 96L96 72Z" fill="#000000" stroke-width="0" /><path d="M168 72L168 96L192 96L192 72Z" fill="#000000" stroke-width="0" /><path d="M192 72L192 96L216 96L216 72Z" fill="#ff0000" stroke-width="0" /><path d="M216 72L216 96L240 96L240 72Z" fill="#ff0000" stroke-width="0" /><path d="M240 72L240 96L264 96L264 72Z" fill="#ff0000" stroke-width="0" /><path d="M264 72L264 96L288 96L288 72Z" fill="#ff0000" stroke-width="0" /><path d="M288 72L288 96L312 96L312 72Z" fill="#ff0000" stroke-width="0" /><path d="M312 72L312 96L336 96L336 72Z" fill="#ff0000" stroke-width="0" /><path d="M336 72L336 96L360 96L360 72Z" fill="#ff0000" stroke-width="0" /><path d="M360 72L360 96L384 96L384 72Z" fill="#ff0000" stroke-width="0" /><path d="M384 72L384 96L408 96L408 72Z" fill="#ff0000" stroke-width="0" /><path d="M408 72L408 96L432 96L432 72Z" fill="#000000" stroke-width="0" /><path d="M456 72L456 96L480 96L480 72Z" fill="#000000" stroke-width="0" /><path d="M480 72L480 96L504 96L504 72Z" fill="#000000" stroke-width="0" /><path d="M24 96L24 120L48 120L48 96Z" fill="#000000" stroke-width="0" /><path d="M48 96L48 120L72 120L72 96Z" fill="#a8742b" stroke-width="0" /><path d="M72 96L72 120L96 120L96 96Z" fill="#000000" stroke-width="0" /><path d="M96 96L96 120L120 120L120 96Z" fill="#000000" stroke-width="0" /><path d="M144 96L144 120L168 120L168 96Z" fill="#000000" stroke-width="0" /><path d="M168 96L168 120L192 120L192 96Z" fill="#ff0000" stroke-width="0" /><path d="M192 96L192 120L216 120L216 96Z" fill="#ff0000" stroke-width="0" /><path d="M216 96L216 120L240 120L240 96Z" fill="#ff0000" stroke-width="0" /><path d="M240 96L240 120L264 120L264 96Z" fill="#000000" stroke-width="0" /><path d="M264 96L264 120L288 120L288 96Z" fill="#000000" stroke-width="0" /><path d="M288 96L288 120L312 120L312 96Z" fill="#000000" stroke-width="0" /><path d="M312 96L312 120L336 120L336 96Z" fill="#ff0000" stroke-width="0" /><path d="M336 96L336 120L360 120L360 96Z" fill="#ff0000" stroke-width="0" /><path d="M360 96L360 120L384 120L384 96Z" fill="#ff0000" stroke-width="0" /><path d="M384 96L384 120L408 120L408 96Z" fill="#000000" stroke-width="0" /><path d="M408 96L408 120L432 120L432 96Z" fill="#000000" stroke-width="0" /><path d="M432 96L432 120L456 120L456 96Z" fill="#000000" stroke-width="0" /><path d="M456 96L456 120L480 120L480 96Z" fill="#000000" stroke-width="0" /><path d="M480 96L480 120L504 120L504 96Z" fill="#a8742b" stroke-width="0" /><path d="M504 96L504 120L528 120L528 96Z" fill="#000000" stroke-width="0" /><path d="M24 120L24 144L48 144L48 120Z" fill="#000000" stroke-width="0" /><path d="M48 120L48 144L72 144L72 120Z" fill="#000000" stroke-width="0" /><path d="M72 120L72 144L96 144L96 120Z" fill="#a8742b" stroke-width="0" /><path d="M96 120L96 144L120 144L120 120Z" fill="#000000" stroke-width="0" /><path d="M120 120L120 144L144 144L144 120Z" fill="#000000" stroke-width="0" /><path d="M144 120L144 144L168 144L168 120Z" fill="#ff0000" stroke-width="0" /><path d="M168 120L168 144L192 144L192 120Z" fill="#ff0000" stroke-width="0" /><path d="M192 120L192 144L216 144L216 120Z" fill="#ff0000" stroke-width="0" /><path d="M216 120L216 144L240 144L240 120Z" fill="#ff0000" stroke-width="0" /><path d="M240 120L240 144L264 144L264 120Z" fill="#000000" stroke-width="0" /><path d="M312 120L312 144L336 144L336 120Z" fill="#000000" stroke-width="0" /><path d="M336 120L336 144L360 144L360 120Z" fill="#ff0000" stroke-width="0" /><path d="M360 120L360 144L384 144L384 120Z" fill="#000000" stroke-width="0" /><path d="M408 120L408 144L432 144L432 120Z" fill="#000000" stroke-width="0" /><path d="M432 120L432 144L456 144L456 120Z" fill="#000000" stroke-width="0" /><path d="M456 120L456 144L480 144L480 120Z" fill="#a8742b" stroke-width="0" /><path d="M480 120L480 144L504 144L504 120Z" fill="#000000" stroke-width="0" /><path d="M504 120L504 144L528 144L528 120Z" fill="#000000" stroke-width="0" /><path d="M48 144L48 168L72 168L72 144Z" fill="#000000" stroke-width="0" /><path d="M72 144L72 168L96 168L96 144Z" fill="#000000" stroke-width="0" /><path d="M96 144L96 168L120 168L120 144Z" fill="#a8742b" stroke-width="0" /><path d="M120 144L120 168L144 168L144 144Z" fill="#000000" stroke-width="0" /><path d="M144 144L144 168L168 168L168 144Z" fill="#000000" stroke-width="0" /><path d="M168 144L168 168L192 168L192 144Z" fill="#ff0000" stroke-width="0" /><path d="M192 144L192 168L216 168L216 144Z" fill="#ff0000" stroke-width="0" /><path d="M216 144L216 168L240 168L240 144Z" fill="#ff0000" stroke-width="0" /><path d="M240 144L240 168L264 168L264 144Z" fill="#000000" stroke-width="0" /><path d="M336 144L336 168L360 168L360 144Z" fill="#ff0000" stroke-width="0" /><path d="M408 144L408 168L432 168L432 144Z" fill="#000000" stroke-width="0" /><path d="M432 144L432 168L456 168L456 144Z" fill="#a8742b" stroke-width="0" /><path d="M456 144L456 168L480 168L480 144Z" fill="#000000" stroke-width="0" /><path d="M480 144L480 168L504 168L504 144Z" fill="#000000" stroke-width="0" /><path d="M72 168L72 192L96 192L96 168Z" fill="#000000" stroke-width="0" /><path d="M96 168L96 192L120 192L120 168Z" fill="#000000" stroke-width="0" /><path d="M120 168L120 192L144 192L144 168Z" fill="#a8742b" stroke-width="0" /><path d="M144 168L144 192L168 192L168 168Z" fill="#000000" stroke-width="0" /><path d="M168 168L168 192L192 192L192 168Z" fill="#ff0000" stroke-width="0" /><path d="M192 168L192 192L216 192L216 168Z" fill="#ff0000" stroke-width="0" /><path d="M216 168L216 192L240 192L240 168Z" fill="#ff0000" stroke-width="0" /><path d="M240 168L240 192L264 192L264 168Z" fill="#000000" stroke-width="0" /><path d="M264 168L264 192L288 192L288 168Z" fill="#000000" stroke-width="0" /><path d="M288 168L288 192L312 192L312 168Z" fill="#000000" stroke-width="0" /><path d="M312 168L312 192L336 192L336 168Z" fill="#000000" stroke-width="0" /><path d="M336 168L336 192L360 192L360 168Z" fill="#ff0000" stroke-width="0" /><path d="M360 168L360 192L384 192L384 168Z" fill="#000000" stroke-width="0" /><path d="M384 168L384 192L408 192L408 168Z" fill="#000000" stroke-width="0" /><path d="M408 168L408 192L432 192L432 168Z" fill="#000000" stroke-width="0" /><path d="M432 168L432 192L456 192L456 168Z" fill="#000000" stroke-width="0" /><path d="M456 168L456 192L480 192L480 168Z" fill="#000000" stroke-width="0" /><path d="M96 192L96 216L120 216L120 192Z" fill="#000000" stroke-width="0" /><path d="M120 192L120 216L144 216L144 192Z" fill="#000000" stroke-width="0" /><path d="M144 192L144 216L168 216L168 192Z" fill="#000000" stroke-width="0" /><path d="M168 192L168 216L192 216L192 192Z" fill="#000000" stroke-width="0" /><path d="M192 192L192 216L216 216L216 192Z" fill="#ff0000" stroke-width="0" /><path d="M216 192L216 216L240 216L240 192Z" fill="#ff0000" stroke-width="0" /><path d="M240 192L240 216L264 216L264 192Z" fill="#ff0000" stroke-width="0" /><path d="M264 192L264 216L288 216L288 192Z" fill="#000000" stroke-width="0" /><path d="M288 192L288 216L312 216L312 192Z" fill="#000000" stroke-width="0" /><path d="M312 192L312 216L336 216L336 192Z" fill="#000000" stroke-width="0" /><path d="M336 192L336 216L360 216L360 192Z" fill="#ff0000" stroke-width="0" /><path d="M360 192L360 216L384 216L384 192Z" fill="#000000" stroke-width="0" /><path d="M384 192L384 216L408 216L408 192Z" fill="#ff0000" stroke-width="0" /><path d="M408 192L408 216L432 216L432 192Z" fill="#000000" stroke-width="0" /><path d="M432 192L432 216L456 216L456 192Z" fill="#000000" stroke-width="0" /><path d="M96 216L96 240L120 240L120 216Z" fill="#000000" stroke-width="0" /><path d="M120 216L120 240L144 240L144 216Z" fill="#000000" stroke-width="0" /><path d="M144 216L144 240L168 240L168 216Z" fill="#000000" stroke-width="0" /><path d="M168 216L168 240L192 240L192 216Z" fill="#000000" stroke-width="0" /><path d="M192 216L192 240L216 240L216 216Z" fill="#000000" stroke-width="0" /><path d="M216 216L216 240L240 240L240 216Z" fill="#ff0000" stroke-width="0" /><path d="M240 216L240 240L264 240L264 216Z" fill="#ff0000" stroke-width="0" /><path d="M264 216L264 240L288 240L288 216Z" fill="#ff0000" stroke-width="0" /><path d="M288 216L288 240L312 240L312 216Z" fill="#ff0000" stroke-width="0" /><path d="M312 216L312 240L336 240L336 216Z" fill="#ff0000" stroke-width="0" /><path d="M336 216L336 240L360 240L360 216Z" fill="#ff0000" stroke-width="0" /><path d="M360 216L360 240L384 240L384 216Z" fill="#ff0000" stroke-width="0" /><path d="M384 216L384 240L408 240L408 216Z" fill="#000000" stroke-width="0" /><path d="M408 216L408 240L432 240L432 216Z" fill="#000000" stroke-width="0" /><path d="M432 216L432 240L456 240L456 216Z" fill="#000000" stroke-width="0" /><path d="M72 240L72 264L96 264L96 240Z" fill="#000000" stroke-width="0" /><path d="M96 240L96 264L120 264L120 240Z" fill="#ff0000" stroke-width="0" /><path d="M120 240L120 264L144 264L144 240Z" fill="#ff0000" stroke-width="0" /><path d="M144 240L144 264L168 264L168 240Z" fill="#000000" stroke-width="0" /><path d="M168 240L168 264L192 264L192 240Z" fill="#000000" stroke-width="0" /><path d="M192 240L192 264L216 264L216 240Z" fill="#000000" stroke-width="0" /><path d="M216 240L216 264L240 264L240 240Z" fill="#000000" stroke-width="0" /><path d="M240 240L240 264L264 264L264 240Z" fill="#ff0000" stroke-width="0" /><path d="M264 240L264 264L288 264L288 240Z" fill="#ff0000" stroke-width="0" /><path d="M288 240L288 264L312 264L312 240Z" fill="#ff0000" stroke-width="0" /><path d="M312 240L312 264L336 264L336 240Z" fill="#ff0000" stroke-width="0" /><path d="M336 240L336 264L360 264L360 240Z" fill="#ff0000" stroke-width="0" /><path d="M360 240L360 264L384 264L384 240Z" fill="#000000" stroke-width="0" /><path d="M384 240L384 264L408 264L408 240Z" fill="#000000" stroke-width="0" /><path d="M408 240L408 264L432 264L432 240Z" fill="#ff0000" stroke-width="0" /><path d="M432 240L432 264L456 264L456 240Z" fill="#ff0000" stroke-width="0" /><path d="M456 240L456 264L480 264L480 240Z" fill="#000000" stroke-width="0" /><path d="M72 264L72 288L96 288L96 264Z" fill="#000000" stroke-width="0" /><path d="M96 264L96 288L120 288L120 264Z" fill="#ff0000" stroke-width="0" /><path d="M120 264L120 288L144 288L144 264Z" fill="#ff0000" stroke-width="0" /><path d="M144 264L144 288L168 288L168 264Z" fill="#ff0000" stroke-width="0" /><path d="M168 264L168 288L192 288L192 264Z" fill="#000000" stroke-width="0" /><path d="M192 264L192 288L216 288L216 264Z" fill="#000000" stroke-width="0" /><path d="M216 264L216 288L240 288L240 264Z" fill="#ff0000" stroke-width="0" /><path d="M240 264L240 288L264 288L264 264Z" fill="#000000" stroke-width="0" /><path d="M264 264L264 288L288 288L288 264Z" fill="#000000" stroke-width="0" /><path d="M288 264L288 288L312 288L312 264Z" fill="#000000" stroke-width="0" /><path d="M312 264L312 288L336 288L336 264Z" fill="#000000" stroke-width="0" /><path d="M336 264L336 288L360 288L360 264Z" fill="#000000" stroke-width="0" /><path d="M360 264L360 288L384 288L384 264Z" fill="#000000" stroke-width="0" /><path d="M384 264L384 288L408 288L408 264Z" fill="#ff0000" stroke-width="0" /><path d="M408 264L408 288L432 288L432 264Z" fill="#ff0000" stroke-width="0" /><path d="M432 264L432 288L456 288L456 264Z" fill="#ff0000" stroke-width="0" /><path d="M456 264L456 288L480 288L480 264Z" fill="#000000" stroke-width="0" /><path d="M48 288L48 312L72 312L72 288Z" fill="#000000" stroke-width="0" /><path d="M72 288L72 312L96 312L96 288Z" fill="#ff0000" stroke-width="0" /><path d="M96 288L96 312L120 312L120 288Z" fill="#ff0000" stroke-width="0" /><path d="M120 288L120 312L144 312L144 288Z" fill="#ff0000" stroke-width="0" /><path d="M144 288L144 312L168 312L168 288Z" fill="#000000" stroke-width="0" /><path d="M168 288L168 312L192 312L192 288Z" fill="#000000" stroke-width="0" /><path d="M192 288L192 312L216 312L216 288Z" fill="#000000" stroke-width="0" /><path d="M216 288L216 312L240 312L240 288Z" fill="#ff0000" stroke-width="0" /><path d="M240 288L240 312L264 312L264 288Z" fill="#ff0000" stroke-width="0" /><path d="M264 288L264 312L288 312L288 288Z" fill="#ff0000" stroke-width="0" /><path d="M288 288L288 312L312 312L312 288Z" fill="#ff0000" stroke-width="0" /><path d="M312 288L312 312L336 312L336 288Z" fill="#ff0000" stroke-width="0" /><path d="M336 288L336 312L360 312L360 288Z" fill="#000000" stroke-width="0" /><path d="M360 288L360 312L384 312L384 288Z" fill="#000000" stroke-width="0" /><path d="M384 288L384 312L408 312L408 288Z" fill="#000000" stroke-width="0" /><path d="M408 288L408 312L432 312L432 288Z" fill="#ff0000" stroke-width="0" /><path d="M432 288L432 312L456 312L456 288Z" fill="#ff0000" stroke-width="0" /><path d="M456 288L456 312L480 312L480 288Z" fill="#ff0000" stroke-width="0" /><path d="M480 288L480 312L504 312L504 288Z" fill="#000000" stroke-width="0" /><path d="M48 312L48 336L72 336L72 312Z" fill="#000000" stroke-width="0" /><path d="M72 312L72 336L96 336L96 312Z" fill="#ff0000" stroke-width="0" /><path d="M96 312L96 336L120 336L120 312Z" fill="#ff0000" stroke-width="0" /><path d="M120 312L120 336L144 336L144 312Z" fill="#000000" stroke-width="0" /><path d="M144 312L144 336L168 336L168 312Z" fill="#000000" stroke-width="0" /><path d="M168 312L168 336L192 336L192 312Z" fill="#000000" stroke-width="0" /><path d="M192 312L192 336L216 336L216 312Z" fill="#000000" stroke-width="0" /><path d="M216 312L216 336L240 336L240 312Z" fill="#000000" stroke-width="0" /><path d="M240 312L240 336L264 336L264 312Z" fill="#ff0000" stroke-width="0" /><path d="M264 312L264 336L288 336L288 312Z" fill="#ff0000" stroke-width="0" /><path d="M288 312L288 336L312 336L312 312Z" fill="#ff0000" stroke-width="0" /><path d="M312 312L312 336L336 336L336 312Z" fill="#000000" stroke-width="0" /><path d="M336 312L336 336L360 336L360 312Z" fill="#000000" stroke-width="0" /><path d="M360 312L360 336L384 336L384 312Z" fill="#000000" stroke-width="0" /><path d="M384 312L384 336L408 336L408 312Z" fill="#000000" stroke-width="0" /><path d="M408 312L408 336L432 336L432 312Z" fill="#000000" stroke-width="0" /><path d="M432 312L432 336L456 336L456 312Z" fill="#ff0000" stroke-width="0" /><path d="M456 312L456 336L480 336L480 312Z" fill="#ff0000" stroke-width="0" /><path d="M480 312L480 336L504 336L504 312Z" fill="#000000" stroke-width="0" /><path d="M48 336L48 360L72 360L72 336Z" fill="#000000" stroke-width="0" /><path d="M72 336L72 360L96 360L96 336Z" fill="#ff0000" stroke-width="0" /><path d="M96 336L96 360L120 360L120 336Z" fill="#ff0000" stroke-width="0" /><path d="M120 336L120 360L144 360L144 336Z" fill="#ff0000" stroke-width="0" /><path d="M144 336L144 360L168 360L168 336Z" fill="#000000" stroke-width="0" /><path d="M168 336L168 360L192 360L192 336Z" fill="#000000" stroke-width="0" /><path d="M192 336L192 360L216 360L216 336Z" fill="#000000" stroke-width="0" /><path d="M216 336L216 360L240 360L240 336Z" fill="#000000" stroke-width="0" /><path d="M240 336L240 360L264 360L264 336Z" fill="#ff0000" stroke-width="0" /><path d="M264 336L264 360L288 360L288 336Z" fill="#ff0000" stroke-width="0" /><path d="M288 336L288 360L312 360L312 336Z" fill="#ff0000" stroke-width="0" /><path d="M312 336L312 360L336 360L336 336Z" fill="#000000" stroke-width="0" /><path d="M336 336L336 360L360 360L360 336Z" fill="#000000" stroke-width="0" /><path d="M360 336L360 360L384 360L384 336Z" fill="#000000" stroke-width="0" /><path d="M384 336L384 360L408 360L408 336Z" fill="#000000" stroke-width="0" /><path d="M408 336L408 360L432 360L432 336Z" fill="#ff0000" stroke-width="0" /><path d="M432 336L432 360L456 360L456 336Z" fill="#ff0000" stroke-width="0" /><path d="M456 336L456 360L480 360L480 336Z" fill="#ff0000" stroke-width="0" /><path d="M480 336L480 360L504 360L504 336Z" fill="#000000" stroke-width="0" /><path d="M48 360L48 384L72 384L72 360Z" fill="#000000" stroke-width="0" /><path d="M72 360L72 384L96 384L96 360Z" fill="#ff0000" stroke-width="0" /><path d="M96 360L96 384L120 384L120 360Z" fill="#ff0000" stroke-width="0" /><path d="M120 360L120 384L144 384L144 360Z" fill="#ff0000" stroke-width="0" /><path d="M144 360L144 384L168 384L168 360Z" fill="#000000" stroke-width="0" /><path d="M168 360L168 384L192 384L192 360Z" fill="#000000" stroke-width="0" /><path d="M192 360L192 384L216 384L216 360Z" fill="#a8742b" stroke-width="0" /><path d="M216 360L216 384L240 384L240 360Z" fill="#a8742b" stroke-width="0" /><path d="M240 360L240 384L264 384L264 360Z" fill="#000000" stroke-width="0" /><path d="M264 360L264 384L288 384L288 360Z" fill="#a8742b" stroke-width="0" /><path d="M288 360L288 384L312 384L312 360Z" fill="#a8742b" stroke-width="0" /><path d="M312 360L312 384L336 384L336 360Z" fill="#000000" stroke-width="0" /><path d="M336 360L336 384L360 384L360 360Z" fill="#a8742b" stroke-width="0" /><path d="M360 360L360 384L384 384L384 360Z" fill="#000000" stroke-width="0" /><path d="M384 360L384 384L408 384L408 360Z" fill="#000000" stroke-width="0" /><path d="M408 360L408 384L432 384L432 360Z" fill="#ff0000" stroke-width="0" /><path d="M432 360L432 384L456 384L456 360Z" fill="#ff0000" stroke-width="0" /><path d="M456 360L456 384L480 384L480 360Z" fill="#ff0000" stroke-width="0" /><path d="M480 360L480 384L504 384L504 360Z" fill="#000000" stroke-width="0" /><path d="M72 384L72 408L96 408L96 384Z" fill="#000000" stroke-width="0" /><path d="M96 384L96 408L120 408L120 384Z" fill="#000000" stroke-width="0" /><path d="M120 384L120 408L144 408L144 384Z" fill="#000000" stroke-width="0" /><path d="M144 384L144 408L168 408L168 384Z" fill="#000000" stroke-width="0" /><path d="M168 384L168 408L192 408L192 384Z" fill="#000000" stroke-width="0" /><path d="M192 384L192 408L216 408L216 384Z" fill="#a8742b" stroke-width="0" /><path d="M216 384L216 408L240 408L240 384Z" fill="#a8742b" stroke-width="0" /><path d="M240 384L240 408L264 408L264 384Z" fill="#000000" stroke-width="0" /><path d="M264 384L264 408L288 408L288 384Z" fill="#a8742b" stroke-width="0" /><path d="M288 384L288 408L312 408L312 384Z" fill="#a8742b" stroke-width="0" /><path d="M312 384L312 408L336 408L336 384Z" fill="#000000" stroke-width="0" /><path d="M336 384L336 408L360 408L360 384Z" fill="#a8742b" stroke-width="0" /><path d="M360 384L360 408L384 408L384 384Z" fill="#000000" stroke-width="0" /><path d="M384 384L384 408L408 408L408 384Z" fill="#000000" stroke-width="0" /><path d="M408 384L408 408L432 408L432 384Z" fill="#000000" stroke-width="0" /><path d="M432 384L432 408L456 408L456 384Z" fill="#000000" stroke-width="0" /><path d="M456 384L456 408L480 408L480 384Z" fill="#000000" stroke-width="0" /><path d="M72 408L72 432L96 432L96 408Z" fill="#000000" stroke-width="0" /><path d="M96 408L96 432L120 432L120 408Z" fill="#000000" stroke-width="0" /><path d="M120 408L120 432L144 432L144 408Z" fill="#000000" stroke-width="0" /><path d="M144 408L144 432L168 432L168 408Z" fill="#000000" stroke-width="0" /><path d="M168 408L168 432L192 432L192 408Z" fill="#000000" stroke-width="0" /><path d="M192 408L192 432L216 432L216 408Z" fill="#000000" stroke-width="0" /><path d="M216 408L216 432L240 432L240 408Z" fill="#ff0000" stroke-width="0" /><path d="M240 408L240 432L264 432L264 408Z" fill="#ff0000" stroke-width="0" /><path d="M264 408L264 432L288 432L288 408Z" fill="#ff0000" stroke-width="0" /><path d="M288 408L288 432L312 432L312 408Z" fill="#ff0000" stroke-width="0" /><path d="M312 408L312 432L336 432L336 408Z" fill="#ff0000" stroke-width="0" /><path d="M336 408L336 432L360 432L360 408Z" fill="#000000" stroke-width="0" /><path d="M360 408L360 432L384 432L384 408Z" fill="#000000" stroke-width="0" /><path d="M384 408L384 432L408 432L408 408Z" fill="#000000" stroke-width="0" /><path d="M408 408L408 432L432 432L432 408Z" fill="#000000" stroke-width="0" /><path d="M432 408L432 432L456 432L456 408Z" fill="#000000" stroke-width="0" /><path d="M456 408L456 432L480 432L480 408Z" fill="#000000" stroke-width="0" /><path d="M96 432L96 456L120 456L120 432Z" fill="#000000" stroke-width="0" /><path d="M120 432L120 456L144 456L144 432Z" fill="#000000" stroke-width="0" /><path d="M144 432L144 456L168 456L168 432Z" fill="#000000" stroke-width="0" /><path d="M168 432L168 456L192 456L192 432Z" fill="#000000" stroke-width="0" /><path d="M192 432L192 456L216 456L216 432Z" fill="#ff0000" stroke-width="0" /><path d="M216 432L216 456L240 456L240 432Z" fill="#ff0000" stroke-width="0" /><path d="M240 432L240 456L264 456L264 432Z" fill="#ff0000" stroke-width="0" /><path d="M264 432L264 456L288 456L288 432Z" fill="#000000" stroke-width="0" /><path d="M288 432L288 456L312 456L312 432Z" fill="#ff0000" stroke-width="0" /><path d="M312 432L312 456L336 456L336 432Z" fill="#ff0000" stroke-width="0" /><path d="M336 432L336 456L360 456L360 432Z" fill="#ff0000" stroke-width="0" /><path d="M360 432L360 456L384 456L384 432Z" fill="#000000" stroke-width="0" /><path d="M384 432L384 456L408 456L408 432Z" fill="#000000" stroke-width="0" /><path d="M408 432L408 456L432 456L432 432Z" fill="#000000" stroke-width="0" /><path d="M432 432L432 456L456 456L456 432Z" fill="#000000" stroke-width="0" /><path d="M96 456L96 480L120 480L120 456Z" fill="#000000" stroke-width="0" /><path d="M120 456L120 480L144 480L144 456Z" fill="#000000" stroke-width="0" /><path d="M144 456L144 480L168 480L168 456Z" fill="#ff0000" stroke-width="0" /><path d="M168 456L168 480L192 480L192 456Z" fill="#ff0000" stroke-width="0" /><path d="M192 456L192 480L216 480L216 456Z" fill="#ff0000" stroke-width="0" /><path d="M216 456L216 480L240 480L240 456Z" fill="#ff0000" stroke-width="0" /><path d="M240 456L240 480L264 480L264 456Z" fill="#000000" stroke-width="0" /><path d="M288 456L288 480L312 480L312 456Z" fill="#000000" stroke-width="0" /><path d="M312 456L312 480L336 480L336 456Z" fill="#ff0000" stroke-width="0" /><path d="M336 456L336 480L360 480L360 456Z" fill="#ff0000" stroke-width="0" /><path d="M360 456L360 480L384 480L384 456Z" fill="#ff0000" stroke-width="0" /><path d="M384 456L384 480L408 480L408 456Z" fill="#ff0000" stroke-width="0" /><path d="M408 456L408 480L432 480L432 456Z" fill="#000000" stroke-width="0" /><path d="M432 456L432 480L456 480L456 456Z" fill="#000000" stroke-width="0" /><path d="M48 480L48 504L72 504L72 480Z" fill="#000000" stroke-width="0" /><path d="M72 480L72 504L96 504L96 480Z" fill="#000000" stroke-width="0" /><path d="M96 480L96 504L120 504L120 480Z" fill="#ff0000" stroke-width="0" /><path d="M120 480L120 504L144 504L144 480Z" fill="#ff0000" stroke-width="0" /><path d="M144 480L144 504L168 504L168 480Z" fill="#000000" stroke-width="0" /><path d="M168 480L168 504L192 504L192 480Z" fill="#000000" stroke-width="0" /><path d="M192 480L192 504L216 504L216 480Z" fill="#000000" stroke-width="0" /><path d="M216 480L216 504L240 504L240 480Z" fill="#000000" stroke-width="0" /><path d="M312 480L312 504L336 504L336 480Z" fill="#000000" stroke-width="0" /><path d="M336 480L336 504L360 504L360 480Z" fill="#000000" stroke-width="0" /><path d="M360 480L360 504L384 504L384 480Z" fill="#000000" stroke-width="0" /><path d="M384 480L384 504L408 504L408 480Z" fill="#000000" stroke-width="0" /><path d="M408 480L408 504L432 504L432 480Z" fill="#ff0000" stroke-width="0" /><path d="M432 480L432 504L456 504L456 480Z" fill="#ff0000" stroke-width="0" /><path d="M456 480L456 504L480 504L480 480Z" fill="#000000" stroke-width="0" /><path d="M480 480L480 504L504 504L504 480Z" fill="#000000" stroke-width="0" /><path d="M0 504L0 528L24 528L24 504Z" fill="#000000" stroke-width="0" /><path d="M24 504L24 528L48 528L48 504Z" fill="#000000" stroke-width="0" /><path d="M48 504L48 528L72 528L72 504Z" fill="#000000" stroke-width="0" /><path d="M72 504L72 528L96 528L96 504Z" fill="#000000" stroke-width="0" /><path d="M96 504L96 528L120 528L120 504Z" fill="#000000" stroke-width="0" /><path d="M120 504L120 528L144 528L144 504Z" fill="#ff0000" stroke-width="0" /><path d="M144 504L144 528L168 528L168 504Z" fill="#ff0000" stroke-width="0" /><path d="M168 504L168 528L192 528L192 504Z" fill="#ff0000" stroke-width="0" /><path d="M192 504L192 528L216 528L216 504Z" fill="#ff0000" stroke-width="0" /><path d="M216 504L216 528L240 528L240 504Z" fill="#000000" stroke-width="0" /><path d="M312 504L312 528L336 528L336 504Z" fill="#000000" stroke-width="0" /><path d="M336 504L336 528L360 528L360 504Z" fill="#ff0000" stroke-width="0" /><path d="M360 504L360 528L384 528L384 504Z" fill="#ff0000" stroke-width="0" /><path d="M384 504L384 528L408 528L408 504Z" fill="#ff0000" stroke-width="0" /><path d="M408 504L408 528L432 528L432 504Z" fill="#ff0000" stroke-width="0" /><path d="M432 504L432 528L456 528L456 504Z" fill="#000000" stroke-width="0" /><path d="M456 504L456 528L480 528L480 504Z" fill="#000000" stroke-width="0" /><path d="M480 504L480 528L504 528L504 504Z" fill="#000000" stroke-width="0" /><path d="M504 504L504 528L528 528L528 504Z" fill="#000000" stroke-width="0" /><path d="M528 504L528 528L552 528L552 504Z" fill="#000000" stroke-width="0" /><path d="M0 528L0 552L24 552L24 528Z" fill="#000000" stroke-width="0" /><path d="M24 528L24 552L48 552L48 528Z" fill="#000000" stroke-width="0" /><path d="M48 528L48 552L72 552L72 528Z" fill="#000000" stroke-width="0" /><path d="M72 528L72 552L96 552L96 528Z" fill="#000000" stroke-width="0" /><path d="M96 528L96 552L120 552L120 528Z" fill="#000000" stroke-width="0" /><path d="M120 528L120 552L144 552L144 528Z" fill="#000000" stroke-width="0" /><path d="M144 528L144 552L168 552L168 528Z" fill="#000000" stroke-width="0" /><path d="M168 528L168 552L192 552L192 528Z" fill="#000000" stroke-width="0" /><path d="M192 528L192 552L216 552L216 528Z" fill="#000000" stroke-width="0" /><path d="M216 528L216 552L240 552L240 528Z" fill="#000000" stroke-width="0" /><path d="M312 528L312 552L336 552L336 528Z" fill="#000000" stroke-width="0" /><path d="M336 528L336 552L360 552L360 528Z" fill="#000000" stroke-width="0" /><path d="M360 528L360 552L384 552L384 528Z" fill="#000000" stroke-width="0" /><path d="M384 528L384 552L408 552L408 528Z" fill="#000000" stroke-width="0" /><path d="M408 528L408 552L432 552L432 528Z" fill="#000000" stroke-width="0" /><path d="M432 528L432 552L456 552L456 528Z" fill="#000000" stroke-width="0" /><path d="M456 528L456 552L480 552L480 528Z" fill="#000000" stroke-width="0" /><path d="M480 528L480 552L504 552L504 528Z" fill="#000000" stroke-width="0" /><path d="M504 528L504 552L528 552L528 528Z" fill="#000000" stroke-width="0" /><path d="M528 528L528 552L552 552L552 528Z" fill="#000000" stroke-width="0" /></svg>