<svg version="1.1" xmlns="http://www.w3.org/2000/svg" width="745" height="841"><desc>Created by Grid Painter http://grid-painter.appspot.com</desc><rect x="0" y="0" width="746" height="842" fill="#ffffff" stroke-width="0" /><path d="M336 0L336 24L360 24L360 0Z" fill="#000000" stroke-width="0" /><path d="M360 0L360 24L384 24L384 0Z" fill="#000000" stroke-width="0" /><path d="M384 0L384 24L408 24L408 0Z" fill="#000000" stroke-width="0" /><path d="M288 24L288 48L312 48L312 24Z" fill="#000000" stroke-width="0" /><path d="M312 24L312 48L336 48L336 24Z" fill="#000000" stroke-width="0" /><path d="M336 24L336 48L360 48L360 24Z" fill="#ff0000" stroke-width="0" /><path d="M360 24L360 48L384 48L384 24Z" fill="#ff0000" stroke-width="0" /><path d="M384 24L384 48L408 48L408 24Z" fill="#ff0000" stroke-width="0" /><path d="M408 24L408 48L432 48L432 24Z" fill="#000000" stroke-width="0" /><path d="M432 24L432 48L456 48L456 24Z" fill="#000000" stroke-width="0" /><path d="M264 48L264 72L288 72L288 48Z" fill="#000000" stroke-width="0" /><path d="M288 48L288 72L312 72L312 48Z" fill="#ffd147" stroke-width="0" /><path d="M312 48L312 72L336 72L336 48Z" fill="#ffd147" stroke-width="0" /><path d="M336 48L336 72L360 72L360 48Z" fill="#ff0000" stroke-width="0" /><path d="M360 48L360 72L384 72L384 48Z" fill="#ff0000" stroke-width="0" /><path d="M384 48L384 72L408 72L408 48Z" fill="#ff0000" stroke-width="0" /><path d="M408 48L408 72L432 72L432 48Z" fill="#ffd147" stroke-width="0" /><path d="M432 48L432 72L456 72L456 48Z" fill="#ffd147" stroke-width="0" /><path d="M456 48L456 72L480 72L480 48Z" fill="#000000" stroke-width="0" /><path d="M240 72L240 96L264 96L264 72Z" fill="#000000" stroke-width="0" /><path d="M264 72L264 96L288 96L288 72Z" fill="#ffd147" stroke-width="0" /><path d="M288 72L288 96L312 96L312 72Z" fill="#ffd147" stroke-width="0" /><path d="M312 72L312 96L336 96L336 72Z" fill="#ffd147" stroke-width="0" /><path d="M336 72L336 96L360 96L360 72Z" fill="#ffd147" stroke-width="0" /><path d="M360 72L360 96L384 96L384 72Z" fill="#ff0000" stroke-width="0" /><path d="M384 72L384 96L408 96L408 72Z" fill="#ffd147" stroke-width="0" /><path d="M408 72L408 96L432 96L432 72Z" fill="#ffd147" stroke-width="0" /><path d="M432 72L432 96L456 96L456 72Z" fill="#ffd147" stroke-width="0" /><path d="M456 72L456 96L480 96L480 72Z" fill="#ffd147" stroke-width="0" /><path d="M480 72L480 96L504 96L504 72Z" fill="#000000" stroke-width="0" /><path d="M240 96L240 120L264 120L264 96Z" fill="#000000" stroke-width="0" /><path d="M264 96L264 120L288 120L288 96Z" fill="#ff0000" stroke-width="0" /><path d="M288 96L288 120L312 120L312 96Z" fill="#ffd147" stroke-width="0" /><path d="M312 96L312 120L336 120L336 96Z" fill="#ffd147" stroke-width="0" /><path d="M336 96L336 120L360 120L360 96Z" fill="#ffd147" stroke-width="0" /><path d="M360 96L360 120L384 120L384 96Z" fill="#ffd147" stroke-width="0" /><path d="M384 96L384 120L408 120L408 96Z" fill="#ffd147" stroke-width="0" /><path d="M408 96L408 120L432 120L432 96Z" fill="#ffd147" stroke-width="0" /><path d="M432 96L432 120L456 120L456 96Z" fill="#ffd147" stroke-width="0" /><path d="M456 96L456 120L480 120L480 96Z" fill="#ff0000" stroke-width="0" /><path d="M480 96L480 120L504 120L504 96Z" fill="#000000" stroke-width="0" /><path d="M216 120L216 144L240 144L240 120Z" fill="#000000" stroke-width="0" /><path d="M240 120L240 144L264 144L264 120Z" fill="#ff0000" stroke-width="0" /><path d="M264 120L264 144L288 144L288 120Z" fill="#ff0000" stroke-width="0" /><path d="M288 120L288 144L312 144L312 120Z" fill="#000000" stroke-width="0" /><path d="M312 120L312 144L336 144L336 120Z" fill="#000000" stroke-width="0" /><path d="M336 120L336 144L360 144L360 120Z" fill="#ffd147" stroke-width="0" /><path d="M360 120L360 144L384 144L384 120Z" fill="#ffd147" stroke-width="0" /><path d="M384 120L384 144L408 144L408 120Z" fill="#ffd147" stroke-width="0" /><path d="M408 120L408 144L432 144L432 120Z" fill="#000000" stroke-width="0" /><path d="M432 120L432 144L456 144L456 120Z" fill="#000000" stroke-width="0" /><path d="M456 120L456 144L480 144L480 120Z" fill="#ff0000" stroke-width="0" /><path d="M480 120L480 144L504 144L504 120Z" fill="#ff0000" stroke-width="0" /><path d="M504 120L504 144L528 144L528 120Z" fill="#000000" stroke-width="0" /><path d="M216 144L216 168L240 168L240 144Z" fill="#000000" stroke-width="0" /><path d="M240 144L240 168L264 168L264 144Z" fill="#ff0000" stroke-width="0" /><path d="M264 144L264 168L288 168L288 144Z" fill="#ffd147" stroke-width="0" /><path d="M288 144L288 168L312 168L312 144Z" fill="#9effff" stroke-width="0" /><path d="M312 144L312 168L336 168L336 144Z" fill="#9effff" stroke-width="0" /><path d="M336 144L336 168L360 168L360 144Z" fill="#9effff" stroke-width="0" /><path d="M360 144L360 168L384 168L384 144Z" fill="#000000" stroke-width="0" /><path d="M384 144L384 168L408 168L408 144Z" fill="#9effff" stroke-width="0" /><path d="M408 144L408 168L432 168L432 144Z" fill="#9effff" stroke-width="0" /><path d="M432 144L432 168L456 168L456 144Z" fill="#9effff" stroke-width="0" /><path d="M456 144L456 168L480 168L480 144Z" fill="#ffd147" stroke-width="0" /><path d="M480 144L480 168L504 168L504 144Z" fill="#ff0000" stroke-width="0" /><path d="M504 144L504 168L528 168L528 144Z" fill="#000000" stroke-width="0" /><path d="M216 168L216 192L240 192L240 168Z" fill="#000000" stroke-width="0" /><path d="M240 168L240 192L264 192L264 168Z" fill="#ff0000" stroke-width="0" /><path d="M264 168L264 192L288 192L288 168Z" fill="#ffd147" stroke-width="0" /><path d="M288 168L288 192L312 192L312 168Z" fill="#ffd147" stroke-width="0" /><path d="M312 168L312 192L336 192L336 168Z" fill="#ffd147" stroke-width="0" /><path d="M336 168L336 192L360 192L360 168Z" fill="#ffd147" stroke-width="0" /><path d="M360 168L360 192L384 192L384 168Z" fill="#ffd147" stroke-width="0" /><path d="M384 168L384 192L408 192L408 168Z" fill="#ffd147" stroke-width="0" /><path d="M408 168L408 192L432 192L432 168Z" fill="#ffd147" stroke-width="0" /><path d="M432 168L432 192L456 192L456 168Z" fill="#ffd147" stroke-width="0" /><path d="M456 168L456 192L480 192L480 168Z" fill="#ffd147" stroke-width="0" /><path d="M480 168L480 192L504 192L504 168Z" fill="#ff0000" stroke-width="0" /><path d="M504 168L504 192L528 192L528 168Z" fill="#000000" stroke-width="0" /><path d="M240 192L240 216L264 216L264 192Z" fill="#000000" stroke-width="0" /><path d="M264 192L264 216L288 216L288 192Z" fill="#ff0000" stroke-width="0" /><path d="M288 192L288 216L312 216L312 192Z" fill="#ffd147" stroke-width="0" /><path d="M312 192L312 216L336 216L336 192Z" fill="#ffd147" stroke-width="0" /><path d="M336 192L336 216L360 216L360 192Z" fill="#ffd147" stroke-width="0" /><path d="M360 192L360 216L384 216L384 192Z" fill="#ffd147" stroke-width="0" /><path d="M384 192L384 216L408 216L408 192Z" fill="#ffd147" stroke-width="0" /><path d="M408 192L408 216L432 216L432 192Z" fill="#ffd147" stroke-width="0" /><path d="M432 192L432 216L456 216L456 192Z" fill="#ffd147" stroke-width="0" /><path d="M456 192L456 216L480 216L480 192Z" fill="#ff0000" stroke-width="0" /><path d="M480 192L480 216L504 216L504 192Z" fill="#000000" stroke-width="0" /><path d="M192 216L192 240L216 240L216 216Z" fill="#000000" stroke-width="0" /><path d="M216 216L216 240L240 240L240 216Z" fill="#000000" stroke-width="0" /><path d="M240 216L240 240L264 240L264 216Z" fill="#000000" stroke-width="0" /><path d="M264 216L264 240L288 240L288 216Z" fill="#ff0000" stroke-width="0" /><path d="M288 216L288 240L312 240L312 216Z" fill="#ff0000" stroke-width="0" /><path d="M312 216L312 240L336 240L336 216Z" fill="#ffd147" stroke-width="0" /><path d="M336 216L336 240L360 240L360 216Z" fill="#ffd147" stroke-width="0" /><path d="M360 216L360 240L384 240L384 216Z" fill="#ffd147" stroke-width="0" /><path d="M384 216L384 240L408 240L408 216Z" fill="#ffd147" stroke-width="0" /><path d="M408 216L408 240L432 240L432 216Z" fill="#ffd147" stroke-width="0" /><path d="M432 216L432 240L456 240L456 216Z" fill="#ff0000" stroke-width="0" /><path d="M456 216L456 240L480 240L480 216Z" fill="#ff0000" stroke-width="0" /><path d="M480 216L480 240L504 240L504 216Z" fill="#000000" stroke-width="0" /><path d="M504 216L504 240L528 240L528 216Z" fill="#000000" stroke-width="0" /><path d="M528 216L528 240L552 240L552 216Z" fill="#000000" stroke-width="0" /><path d="M120 240L120 264L144 264L144 240Z" fill="#000000" stroke-width="0" /><path d="M144 240L144 264L168 264L168 240Z" fill="#000000" stroke-width="0" /><path d="M168 240L168 264L192 264L192 240Z" fill="#000000" stroke-width="0" /><path d="M192 240L192 264L216 264L216 240Z" fill="#ff0000" stroke-width="0" /><path d="M216 240L216 264L240 264L240 240Z" fill="#ff0000" stroke-width="0" /><path d="M240 240L240 264L264 264L264 240Z" fill="#000000" stroke-width="0" /><path d="M264 240L264 264L288 264L288 240Z" fill="#ff0000" stroke-width="0" /><path d="M288 240L288 264L312 264L312 240Z" fill="#ff0000" stroke-width="0" /><path d="M312 240L312 264L336 264L336 240Z" fill="#ffd147" stroke-width="0" /><path d="M336 240L336 264L360 264L360 240Z" fill="#000000" stroke-width="0" /><path d="M360 240L360 264L384 264L384 240Z" fill="#000000" stroke-width="0" /><path d="M384 240L384 264L408 264L408 240Z" fill="#000000" stroke-width="0" /><path d="M408 240L408 264L432 264L432 240Z" fill="#ffd147" stroke-width="0" /><path d="M432 240L432 264L456 264L456 240Z" fill="#ff0000" stroke-width="0" /><path d="M456 240L456 264L480 264L480 240Z" fill="#ff0000" stroke-width="0" /><path d="M480 240L480 264L504 264L504 240Z" fill="#000000" stroke-width="0" /><path d="M504 240L504 264L528 264L528 240Z" fill="#ff0000" stroke-width="0" /><path d="M528 240L528 264L552 264L552 240Z" fill="#ff0000" stroke-width="0" /><path d="M552 240L552 264L576 264L576 240Z" fill="#000000" stroke-width="0" /><path d="M576 240L576 264L600 264L600 240Z" fill="#000000" stroke-width="0" /><path d="M600 240L600 264L624 264L624 240Z" fill="#000000" stroke-width="0" /><path d="M624 240L624 264L648 264L648 240Z" fill="#000000" stroke-width="0" /><path d="M0 264L0 288L24 288L24 264Z" fill="#000000" stroke-width="0" /><path d="M24 264L24 288L48 288L48 264Z" fill="#000000" stroke-width="0" /><path d="M48 264L48 288L72 288L72 264Z" fill="#000000" stroke-width="0" /><path d="M72 264L72 288L96 288L96 264Z" fill="#000000" stroke-width="0" /><path d="M96 264L96 288L120 288L120 264Z" fill="#000000" stroke-width="0" /><path d="M120 264L120 288L144 288L144 264Z" fill="#ffd147" stroke-width="0" /><path d="M144 264L144 288L168 288L168 264Z" fill="#ff0000" stroke-width="0" /><path d="M168 264L168 288L192 288L192 264Z" fill="#ff0000" stroke-width="0" /><path d="M192 264L192 288L216 288L216 264Z" fill="#ffd147" stroke-width="0" /><path d="M216 264L216 288L240 288L240 264Z" fill="#ffd147" stroke-width="0" /><path d="M240 264L240 288L264 288L264 264Z" fill="#ff0000" stroke-width="0" /><path d="M264 264L264 288L288 288L288 264Z" fill="#000000" stroke-width="0" /><path d="M288 264L288 288L312 288L312 264Z" fill="#ff0000" stroke-width="0" /><path d="M312 264L312 288L336 288L336 264Z" fill="#000000" stroke-width="0" /><path d="M336 264L336 288L360 288L360 264Z" fill="#ffd147" stroke-width="0" /><path d="M360 264L360 288L384 288L384 264Z" fill="#ffd147" stroke-width="0" /><path d="M384 264L384 288L408 288L408 264Z" fill="#ffd147" stroke-width="0" /><path d="M408 264L408 288L432 288L432 264Z" fill="#000000" stroke-width="0" /><path d="M432 264L432 288L456 288L456 264Z" fill="#ff0000" stroke-width="0" /><path d="M456 264L456 288L480 288L480 264Z" fill="#000000" stroke-width="0" /><path d="M480 264L480 288L504 288L504 264Z" fill="#ff0000" stroke-width="0" /><path d="M504 264L504 288L528 288L528 264Z" fill="#ffd147" stroke-width="0" /><path d="M528 264L528 288L552 288L552 264Z" fill="#ffd147" stroke-width="0" /><path d="M552 264L552 288L576 288L576 264Z" fill="#ff0000" stroke-width="0" /><path d="M576 264L576 288L600 288L600 264Z" fill="#ff0000" stroke-width="0" /><path d="M600 264L600 288L624 288L624 264Z" fill="#ffd147" stroke-width="0" /><path d="M624 264L624 288L648 288L648 264Z" fill="#ffd147" stroke-width="0" /><path d="M648 264L648 288L672 288L672 264Z" fill="#000000" stroke-width="0" /><path d="M672 264L672 288L696 288L696 264Z" fill="#000000" stroke-width="0" /><path d="M696 264L696 288L720 288L720 264Z" fill="#000000" stroke-width="0" /><path d="M720 264L720 288L744 288L744 264Z" fill="#000000" stroke-width="0" /><path d="M0 288L0 312L24 312L24 288Z" fill="#000000" stroke-width="0" /><path d="M24 288L24 312L48 312L48 288Z" fill="#ff0000" stroke-width="0" /><path d="M48 288L48 312L72 312L72 288Z" fill="#ff0000" stroke-width="0" /><path d="M72 288L72 312L96 312L96 288Z" fill="#ff0000" stroke-width="0" /><path d="M96 288L96 312L120 312L120 288Z" fill="#000000" stroke-width="0" /><path d="M120 288L120 312L144 312L144 288Z" fill="#ffd147" stroke-width="0" /><path d="M144 288L144 312L168 312L168 288Z" fill="#ffd147" stroke-width="0" /><path d="M168 288L168 312L192 312L192 288Z" fill="#ff0000" stroke-width="0" /><path d="M192 288L192 312L216 312L216 288Z" fill="#ffd147" stroke-width="0" /><path d="M216 288L216 312L240 312L240 288Z" fill="#ffd147" stroke-width="0" /><path d="M240 288L240 312L264 312L264 288Z" fill="#ff0000" stroke-width="0" /><path d="M264 288L264 312L288 312L288 288Z" fill="#ff0000" stroke-width="0" /><path d="M288 288L288 312L312 312L312 288Z" fill="#000000" stroke-width="0" /><path d="M312 288L312 312L336 312L336 288Z" fill="#ff0000" stroke-width="0" /><path d="M336 288L336 312L360 312L360 288Z" fill="#ff0000" stroke-width="0" /><path d="M360 288L360 312L384 312L384 288Z" fill="#ff0000" stroke-width="0" /><path d="M384 288L384 312L408 312L408 288Z" fill="#ff0000" stroke-width="0" /><path d="M408 288L408 312L432 312L432 288Z" fill="#ff0000" stroke-width="0" /><path d="M432 288L432 312L456 312L456 288Z" fill="#000000" stroke-width="0" /><path d="M456 288L456 312L480 312L480 288Z" fill="#ff0000" stroke-width="0" /><path d="M480 288L480 312L504 312L504 288Z" fill="#ff0000" stroke-width="0" /><path d="M504 288L504 312L528 312L528 288Z" fill="#ff0000" stroke-width="0" /><path d="M528 288L528 312L552 312L552 288Z" fill="#ffd147" stroke-width="0" /><path d="M552 288L552 312L576 312L576 288Z" fill="#ff0000" stroke-width="0" /><path d="M576 288L576 312L600 312L600 288Z" fill="#ffd147" stroke-width="0" /><path d="M600 288L600 312L624 312L624 288Z" fill="#ffd147" stroke-width="0" /><path d="M624 288L624 312L648 312L648 288Z" fill="#ff0000" stroke-width="0" /><path d="M648 288L648 312L672 312L672 288Z" fill="#000000" stroke-width="0" /><path d="M672 288L672 312L696 312L696 288Z" fill="#ff0000" stroke-width="0" /><path d="M696 288L696 312L720 312L720 288Z" fill="#ff0000" stroke-width="0" /><path d="M720 288L720 312L744 312L744 288Z" fill="#000000" stroke-width="0" /><path d="M24 312L24 336L48 336L48 312Z" fill="#000000" stroke-width="0" /><path d="M48 312L48 336L72 336L72 312Z" fill="#000000" stroke-width="0" /><path d="M72 312L72 336L96 336L96 312Z" fill="#000000" stroke-width="0" /><path d="M96 312L96 336L120 336L120 312Z" fill="#000000" stroke-width="0" /><path d="M120 312L120 336L144 336L144 312Z" fill="#000000" stroke-width="0" /><path d="M144 312L144 336L168 336L168 312Z" fill="#000000" stroke-width="0" /><path d="M168 312L168 336L192 336L192 312Z" fill="#000000" stroke-width="0" /><path d="M192 312L192 336L216 336L216 312Z" fill="#000000" stroke-width="0" /><path d="M216 312L216 336L240 336L240 312Z" fill="#ff0000" stroke-width="0" /><path d="M240 312L240 336L264 336L264 312Z" fill="#ff0000" stroke-width="0" /><path d="M264 312L264 336L288 336L288 312Z" fill="#ff0000" stroke-width="0" /><path d="M288 312L288 336L312 336L312 312Z" fill="#ff0000" stroke-width="0" /><path d="M312 312L312 336L336 336L336 312Z" fill="#000000" stroke-width="0" /><path d="M336 312L336 336L360 336L360 312Z" fill="#000000" stroke-width="0" /><path d="M360 312L360 336L384 336L384 312Z" fill="#000000" stroke-width="0" /><path d="M384 312L384 336L408 336L408 312Z" fill="#000000" stroke-width="0" /><path d="M408 312L408 336L432 336L432 312Z" fill="#000000" stroke-width="0" /><path d="M432 312L432 336L456 336L456 312Z" fill="#ff0000" stroke-width="0" /><path d="M456 312L456 336L480 336L480 312Z" fill="#ff0000" stroke-width="0" /><path d="M480 312L480 336L504 336L504 312Z" fill="#ff0000" stroke-width="0" /><path d="M504 312L504 336L528 336L528 312Z" fill="#ff0000" stroke-width="0" /><path d="M528 312L528 336L552 336L552 312Z" fill="#ff0000" stroke-width="0" /><path d="M552 312L552 336L576 336L576 312Z" fill="#000000" stroke-width="0" /><path d="M576 312L576 336L600 336L600 312Z" fill="#000000" stroke-width="0" /><path d="M600 312L600 336L624 336L624 312Z" fill="#000000" stroke-width="0" /><path d="M624 312L624 336L648 336L648 312Z" fill="#000000" stroke-width="0" /><path d="M648 312L648 336L672 336L672 312Z" fill="#000000" stroke-width="0" /><path d="M672 312L672 336L696 336L696 312Z" fill="#000000" stroke-width="0" /><path d="M696 312L696 336L720 336L720 312Z" fill="#000000" stroke-width="0" /><path d="M720 312L720 336L744 336L744 312Z" fill="#4d4b4b" stroke-width="0" /><path d="M24 336L24 360L48 360L48 336Z" fill="#4d4b4b" stroke-width="0" /><path d="M48 336L48 360L72 360L72 336Z" fill="#4d4b4b" stroke-width="0" /><path d="M72 336L72 360L96 360L96 336Z" fill="#4d4b4b" stroke-width="0" /><path d="M216 336L216 360L240 360L240 336Z" fill="#000000" stroke-width="0" /><path d="M240 336L240 360L264 360L264 336Z" fill="#ff0000" stroke-width="0" /><path d="M264 336L264 360L288 360L288 336Z" fill="#ff0000" stroke-width="0" /><path d="M288 336L288 360L312 360L312 336Z" fill="#ff0000" stroke-width="0" /><path d="M312 336L312 360L336 360L336 336Z" fill="#000000" stroke-width="0" /><path d="M336 336L336 360L360 360L360 336Z" fill="#9effff" stroke-width="0" /><path d="M360 336L360 360L384 360L384 336Z" fill="#9effff" stroke-width="0" /><path d="M384 336L384 360L408 360L408 336Z" fill="#9effff" stroke-width="0" /><path d="M408 336L408 360L432 360L432 336Z" fill="#000000" stroke-width="0" /><path d="M432 336L432 360L456 360L456 336Z" fill="#ff0000" stroke-width="0" /><path d="M456 336L456 360L480 360L480 336Z" fill="#ff0000" stroke-width="0" /><path d="M480 336L480 360L504 360L504 336Z" fill="#ff0000" stroke-width="0" /><path d="M504 336L504 360L528 360L528 336Z" fill="#000000" stroke-width="0" /><path d="M528 336L528 360L552 360L552 336Z" fill="#000000" stroke-width="0" /><path d="M672 336L672 360L696 360L696 336Z" fill="#4d4b4b" stroke-width="0" /><path d="M696 336L696 360L720 360L720 336Z" fill="#4d4b4b" stroke-width="0" /><path d="M48 360L48 384L72 384L72 360Z" fill="#4d4b4b" stroke-width="0" /><path d="M240 360L240 384L264 384L264 360Z" fill="#000000" stroke-width="0" /><path d="M264 360L264 384L288 384L288 360Z" fill="#ff0000" stroke-width="0" /><path d="M288 360L288 384L312 384L312 360Z" fill="#ff0000" stroke-width="0" /><path d="M312 360L312 384L336 384L336 360Z" fill="#ff0000" stroke-width="0" /><path d="M336 360L336 384L360 384L360 360Z" fill="#000000" stroke-width="0" /><path d="M360 360L360 384L384 384L384 360Z" fill="#9effff" stroke-width="0" /><path d="M384 360L384 384L408 384L408 360Z" fill="#000000" stroke-width="0" /><path d="M408 360L408 384L432 384L432 360Z" fill="#ff0000" stroke-width="0" /><path d="M432 360L432 384L456 384L456 360Z" fill="#ff0000" stroke-width="0" /><path d="M456 360L456 384L480 384L480 360Z" fill="#ff0000" stroke-width="0" /><path d="M480 360L480 384L504 384L504 360Z" fill="#000000" stroke-width="0" /><path d="M696 360L696 384L720 384L720 360Z" fill="#4d4b4b" stroke-width="0" /><path d="M48 384L48 408L72 408L72 384Z" fill="#4d4b4b" stroke-width="0" /><path d="M240 384L240 408L264 408L264 384Z" fill="#000000" stroke-width="0" /><path d="M264 384L264 408L288 408L288 384Z" fill="#ff0000" stroke-width="0" /><path d="M288 384L288 408L312 408L312 384Z" fill="#ff0000" stroke-width="0" /><path d="M312 384L312 408L336 408L336 384Z" fill="#ff0000" stroke-width="0" /><path d="M336 384L336 408L360 408L360 384Z" fill="#ff0000" stroke-width="0" /><path d="M360 384L360 408L384 408L384 384Z" fill="#000000" stroke-width="0" /><path d="M384 384L384 408L408 408L408 384Z" fill="#ff0000" stroke-width="0" /><path d="M408 384L408 408L432 408L432 384Z" fill="#ff0000" stroke-width="0" /><path d="M432 384L432 408L456 408L456 384Z" fill="#ff0000" stroke-width="0" /><path d="M456 384L456 408L480 408L480 384Z" fill="#ff0000" stroke-width="0" /><path d="M480 384L480 408L504 408L504 384Z" fill="#000000" stroke-width="0" /><path d="M264 408L264 432L288 432L288 408Z" fill="#000000" stroke-width="0" /><path d="M288 408L288 432L312 432L312 408Z" fill="#ff0000" stroke-width="0" /><path d="M312 408L312 432L336 432L336 408Z" fill="#ff0000" stroke-width="0" /><path d="M336 408L336 432L360 432L360 408Z" fill="#ff0000" stroke-width="0" /><path d="M360 408L360 432L384 432L384 408Z" fill="#ff0000" stroke-width="0" /><path d="M384 408L384 432L408 432L408 408Z" fill="#ff0000" stroke-width="0" /><path d="M408 408L408 432L432 432L432 408Z" fill="#ff0000" stroke-width="0" /><path d="M432 408L432 432L456 432L456 408Z" fill="#ff0000" stroke-width="0" /><path d="M456 408L456 432L480 432L480 408Z" fill="#000000" stroke-width="0" /><path d="M264 432L264 456L288 456L288 432Z" fill="#000000" stroke-width="0" /><path d="M288 432L288 456L312 456L312 432Z" fill="#ff0000" stroke-width="0" /><path d="M312 432L312 456L336 456L336 432Z" fill="#ff0000" stroke-width="0" /><path d="M336 432L336 456L360 456L360 432Z" fill="#ff0000" stroke-width="0" /><path d="M360 432L360 456L384 456L384 432Z" fill="#ff0000" stroke-width="0" /><path d="M384 432L384 456L408 456L408 432Z" fill="#ff0000" stroke-width="0" /><path d="M408 432L408 456L432 456L432 432Z" fill="#ff0000" stroke-width="0" /><path d="M432 432L432 456L456 456L456 432Z" fill="#ff0000" stroke-width="0" /><path d="M456 432L456 456L480 456L480 432Z" fill="#000000" stroke-width="0" /><path d="M264 456L264 480L288 480L288 456Z" fill="#000000" stroke-width="0" /><path d="M288 456L288 480L312 480L312 456Z" fill="#ffd147" stroke-width="0" /><path d="M312 456L312 480L336 480L336 456Z" fill="#ff0000" stroke-width="0" /><path d="M336 456L336 480L360 480L360 456Z" fill="#ff0000" stroke-width="0" /><path d="M360 456L360 480L384 480L384 456Z" fill="#ff0000" stroke-width="0" /><path d="M384 456L384 480L408 480L408 456Z" fill="#ff0000" stroke-width="0" /><path d="M408 456L408 480L432 480L432 456Z" fill="#ff0000" stroke-width="0" /><path d="M432 456L432 480L456 480L456 456Z" fill="#ffd147" stroke-width="0" /><path d="M456 456L456 480L480 480L480 456Z" fill="#000000" stroke-width="0" /><path d="M240 480L240 504L264 504L264 480Z" fill="#000000" stroke-width="0" /><path d="M264 480L264 504L288 504L288 480Z" fill="#ffd147" stroke-width="0" /><path d="M288 480L288 504L312 504L312 480Z" fill="#ffd147" stroke-width="0" /><path d="M312 480L312 504L336 504L336 480Z" fill="#ffd147" stroke-width="0" /><path d="M336 480L336 504L360 504L360 480Z" fill="#ff0000" stroke-width="0" /><path d="M360 480L360 504L384 504L384 480Z" fill="#ff0000" stroke-width="0" /><path d="M384 480L384 504L408 504L408 480Z" fill="#ff0000" stroke-width="0" /><path d="M408 480L408 504L432 504L432 480Z" fill="#ffd147" stroke-width="0" /><path d="M432 480L432 504L456 504L456 480Z" fill="#ffd147" stroke-width="0" /><path d="M456 480L456 504L480 504L480 480Z" fill="#ffd147" stroke-width="0" /><path d="M480 480L480 504L504 504L504 480Z" fill="#000000" stroke-width="0" /><path d="M216 504L216 528L240 528L240 504Z" fill="#000000" stroke-width="0" /><path d="M240 504L240 528L264 528L264 504Z" fill="#ffd147" stroke-width="0" /><path d="M264 504L264 528L288 528L288 504Z" fill="#ffd147" stroke-width="0" /><path d="M288 504L288 528L312 528L312 504Z" fill="#ffd147" stroke-width="0" /><path d="M312 504L312 528L336 528L336 504Z" fill="#ffd147" stroke-width="0" /><path d="M336 504L336 528L360 528L360 504Z" fill="#ffd147" stroke-width="0" /><path d="M360 504L360 528L384 528L384 504Z" fill="#000000" stroke-width="0" /><path d="M384 504L384 528L408 528L408 504Z" fill="#ffd147" stroke-width="0" /><path d="M408 504L408 528L432 528L432 504Z" fill="#ffd147" stroke-width="0" /><path d="M432 504L432 528L456 528L456 504Z" fill="#ffd147" stroke-width="0" /><path d="M456 504L456 528L480 528L480 504Z" fill="#ffd147" stroke-width="0" /><path d="M480 504L480 528L504 528L504 504Z" fill="#ffd147" stroke-width="0" /><path d="M504 504L504 528L528 528L528 504Z" fill="#000000" stroke-width="0" /><path d="M216 528L216 552L240 552L240 528Z" fill="#000000" stroke-width="0" /><path d="M240 528L240 552L264 552L264 528Z" fill="#ff0000" stroke-width="0" /><path d="M264 528L264 552L288 552L288 528Z" fill="#ffd147" stroke-width="0" /><path d="M288 528L288 552L312 552L312 528Z" fill="#ffd147" stroke-width="0" /><path d="M312 528L312 552L336 552L336 528Z" fill="#ffd147" stroke-width="0" /><path d="M336 528L336 552L360 552L360 528Z" fill="#000000" stroke-width="0" /><path d="M384 528L384 552L408 552L408 528Z" fill="#000000" stroke-width="0" /><path d="M408 528L408 552L432 552L432 528Z" fill="#ffd147" stroke-width="0" /><path d="M432 528L432 552L456 552L456 528Z" fill="#ffd147" stroke-width="0" /><path d="M456 528L456 552L480 552L480 528Z" fill="#ffd147" stroke-width="0" /><path d="M480 528L480 552L504 552L504 528Z" fill="#ffd147" stroke-width="0" /><path d="M504 528L504 552L528 552L528 528Z" fill="#000000" stroke-width="0" /><path d="M192 552L192 576L216 576L216 552Z" fill="#000000" stroke-width="0" /><path d="M216 552L216 576L240 576L240 552Z" fill="#ff0000" stroke-width="0" /><path d="M240 552L240 576L264 576L264 552Z" fill="#ff0000" stroke-width="0" /><path d="M264 552L264 576L288 576L288 552Z" fill="#ff0000" stroke-width="0" /><path d="M288 552L288 576L312 576L312 552Z" fill="#ffd147" stroke-width="0" /><path d="M312 552L312 576L336 576L336 552Z" fill="#ffd147" stroke-width="0" /><path d="M336 552L336 576L360 576L360 552Z" fill="#000000" stroke-width="0" /><path d="M384 552L384 576L408 576L408 552Z" fill="#000000" stroke-width="0" /><path d="M408 552L408 576L432 576L432 552Z" fill="#ffd147" stroke-width="0" /><path d="M432 552L432 576L456 576L456 552Z" fill="#ffd147" stroke-width="0" /><path d="M456 552L456 576L480 576L480 552Z" fill="#ffd147" stroke-width="0" /><path d="M480 552L480 576L504 576L504 552Z" fill="#ff0000" stroke-width="0" /><path d="M504 552L504 576L528 576L528 552Z" fill="#ff0000" stroke-width="0" /><path d="M528 552L528 576L552 576L552 552Z" fill="#000000" stroke-width="0" /><path d="M144 576L144 600L168 600L168 576Z" fill="#000000" stroke-width="0" /><path d="M168 576L168 600L192 600L192 576Z" fill="#000000" stroke-width="0" /><path d="M192 576L192 600L216 600L216 576Z" fill="#ff0000" stroke-width="0" /><path d="M216 576L216 600L240 600L240 576Z" fill="#ff0000" stroke-width="0" /><path d="M240 576L240 600L264 600L264 576Z" fill="#ff0000" stroke-width="0" /><path d="M264 576L264 600L288 600L288 576Z" fill="#ff0000" stroke-width="0" /><path d="M288 576L288 600L312 600L312 576Z" fill="#ff0000" stroke-width="0" /><path d="M312 576L312 600L336 600L336 576Z" fill="#000000" stroke-width="0" /><path d="M408 576L408 600L432 600L432 576Z" fill="#000000" stroke-width="0" /><path d="M432 576L432 600L456 600L456 576Z" fill="#ff0000" stroke-width="0" /><path d="M456 576L456 600L480 600L480 576Z" fill="#ff0000" stroke-width="0" /><path d="M480 576L480 600L504 600L504 576Z" fill="#ff0000" stroke-width="0" /><path d="M504 576L504 600L528 600L528 576Z" fill="#ff0000" stroke-width="0" /><path d="M528 576L528 600L552 600L552 576Z" fill="#ff0000" stroke-width="0" /><path d="M552 576L552 600L576 600L576 576Z" fill="#000000" stroke-width="0" /><path d="M576 576L576 600L600 600L600 576Z" fill="#000000" stroke-width="0" /><path d="M120 600L120 624L144 624L144 600Z" fill="#000000" stroke-width="0" /><path d="M144 600L144 624L168 624L168 600Z" fill="#ff0000" stroke-width="0" /><path d="M168 600L168 624L192 624L192 600Z" fill="#ff0000" stroke-width="0" /><path d="M192 600L192 624L216 624L216 600Z" fill="#ff0000" stroke-width="0" /><path d="M216 600L216 624L240 624L240 600Z" fill="#ff0000" stroke-width="0" /><path d="M240 600L240 624L264 624L264 600Z" fill="#ff0000" stroke-width="0" /><path d="M264 600L264 624L288 624L288 600Z" fill="#ff0000" stroke-width="0" /><path d="M288 600L288 624L312 624L312 600Z" fill="#ff0000" stroke-width="0" /><path d="M312 600L312 624L336 624L336 600Z" fill="#000000" stroke-width="0" /><path d="M408 600L408 624L432 624L432 600Z" fill="#000000" stroke-width="0" /><path d="M432 600L432 624L456 624L456 600Z" fill="#ff0000" stroke-width="0" /><path d="M456 600L456 624L480 624L480 600Z" fill="#ff0000" stroke-width="0" /><path d="M480 600L480 624L504 624L504 600Z" fill="#ff0000" stroke-width="0" /><path d="M504 600L504 624L528 624L528 600Z" fill="#ff0000" stroke-width="0" /><path d="M528 600L528 624L552 624L552 600Z" fill="#ff0000" stroke-width="0" /><path d="M552 600L552 624L576 624L576 600Z" fill="#ff0000" stroke-width="0" /><path d="M576 600L576 624L600 624L600 600Z" fill="#ff0000" stroke-width="0" /><path d="M600 600L600 624L624 624L624 600Z" fill="#000000" stroke-width="0" /><path d="M120 624L120 648L144 648L144 624Z" fill="#000000" stroke-width="0" /><path d="M144 624L144 648L168 648L168 624Z" fill="#000000" stroke-width="0" /><path d="M168 624L168 648L192 648L192 624Z" fill="#000000" stroke-width="0" /><path d="M192 624L192 648L216 648L216 624Z" fill="#000000" stroke-width="0" /><path d="M216 624L216 648L240 648L240 624Z" fill="#000000" stroke-width="0" /><path d="M240 624L240 648L264 648L264 624Z" fill="#000000" stroke-width="0" /><path d="M264 624L264 648L288 648L288 624Z" fill="#000000" stroke-width="0" /><path d="M288 624L288 648L312 648L312 624Z" fill="#000000" stroke-width="0" /><path d="M312 624L312 648L336 648L336 624Z" fill="#000000" stroke-width="0" /><path d="M408 624L408 648L432 648L432 624Z" fill="#000000" stroke-width="0" /><path d="M432 624L432 648L456 648L456 624Z" fill="#000000" stroke-width="0" /><path d="M456 624L456 648L480 648L480 624Z" fill="#000000" stroke-width="0" /><path d="M480 624L480 648L504 648L504 624Z" fill="#000000" stroke-width="0" /><path d="M504 624L504 648L528 648L528 624Z" fill="#000000" stroke-width="0" /><path d="M528 624L528 648L552 648L552 624Z" fill="#000000" stroke-width="0" /><path d="M552 624L552 648L576 648L576 624Z" fill="#000000" stroke-width="0" /><path d="M576 624L576 648L600 648L600 624Z" fill="#000000" stroke-width="0" /><path d="M600 624L600 648L624 648L624 624Z" fill="#000000" stroke-width="0" /><path d="M168 648L168 672L192 672L192 648Z" fill="#4d4b4b" stroke-width="0" /><path d="M192 648L192 672L216 672L216 648Z" fill="#4d4b4b" stroke-width="0" /><path d="M216 648L216 672L240 672L240 648Z" fill="#4d4b4b" stroke-width="0" /><path d="M240 648L240 672L264 672L264 648Z" fill="#4d4b4b" stroke-width="0" /><path d="M264 648L264 672L288 672L288 648Z" fill="#4d4b4b" stroke-width="0" /><path d="M432 648L432 672L456 672L456 648Z" fill="#4d4b4b" stroke-width="0" /><path d="M456 648L456 672L480 672L480 648Z" fill="#4d4b4b" stroke-width="0" /><path d="M480 648L480 672L504 672L504 648Z" fill="#4d4b4b" stroke-width="0" /><path d="M504 648L504 672L528 672L528 648Z" fill="#4d4b4b" stroke-width="0" /><path d="M528 648L528 672L552 672L552 648Z" fill="#4d4b4b" stroke-width="0" /><path d="M552 648L552 672L576 672L576 648Z" fill="#4d4b4b" stroke-width="0" /><path d="M192 672L192 696L216 696L216 672Z" fill="#4d4b4b" stroke-width="0" /><path d="M216 672L216 696L240 696L240 672Z" fill="#4d4b4b" stroke-width="0" /><path d="M240 672L240 696L264 696L264 672Z" fill="#4d4b4b" stroke-width="0" /><path d="M264 672L264 696L288 696L288 672Z" fill="#4d4b4b" stroke-width="0" /><path d="M288 672L288 696L312 696L312 672Z" fill="#4d4b4b" stroke-width="0" /><path d="M432 672L432 696L456 696L456 672Z" fill="#4d4b4b" stroke-width="0" /><path d="M456 672L456 696L480 696L480 672Z" fill="#4d4b4b" stroke-width="0" /><path d="M480 672L480 696L504 696L504 672Z" fill="#4d4b4b" stroke-width="0" /><path d="M504 672L504 696L528 696L528 672Z" fill="#4d4b4b" stroke-width="0" /><path d="M528 672L528 696L552 696L552 672Z" fill="#4d4b4b" stroke-width="0" /><path d="M552 672L552 696L576 696L576 672Z" fill="#4d4b4b" stroke-width="0" /><path d="M192 696L192 720L216 720L216 696Z" fill="#4d4b4b" stroke-width="0" /><path d="M216 696L216 720L240 720L240 696Z" fill="#4d4b4b" stroke-width="0" /><path d="M240 696L240 720L264 720L264 696Z" fill="#4d4b4b" stroke-width="0" /><path d="M264 696L264 720L288 720L288 696Z" fill="#4d4b4b" stroke-width="0" /><path d="M288 696L288 720L312 720L312 696Z" fill="#4d4b4b" stroke-width="0" /><path d="M456 696L456 720L480 720L480 696Z" fill="#4d4b4b" stroke-width="0" /><path d="M480 696L480 720L504 720L504 696Z" fill="#4d4b4b" stroke-width="0" /><path d="M504 696L504 720L528 720L528 696Z" fill="#4d4b4b" stroke-width="0" /><path d="M528 696L528 720L552 720L552 696Z" fill="#4d4b4b" stroke-width="0" /><path d="M216 720L216 744L240 744L240 720Z" fill="#4d4b4b" stroke-width="0" /><path d="M240 720L240 744L264 744L264 720Z" fill="#4d4b4b" stroke-width="0" /><path d="M264 720L264 744L288 744L288 720Z" fill="#4d4b4b" stroke-width="0" /><path d="M456 720L456 744L480 744L480 720Z" fill="#4d4b4b" stroke-width="0" /><path d="M480 720L480 744L504 744L504 720Z" fill="#4d4b4b" stroke-width="0" /><path d="M504 720L504 744L528 744L528 720Z" fill="#4d4b4b" stroke-width="0" /><path d="M240 744L240 768L264 768L264 744Z" fill="#4d4b4b" stroke-width="0" /><path d="M264 744L264 768L288 768L288 744Z" fill="#4d4b4b" stroke-width="0" /><path d="M456 744L456 768L480 768L480 744Z" fill="#4d4b4b" stroke-width="0" /><path d="M480 744L480 768L504 768L504 744Z" fill="#4d4b4b" stroke-width="0" /><path d="M504 744L504 768L528 768L528 744Z" fill="#4d4b4b" stroke-width="0" /><path d="M240 768L240 792L264 792L264 768Z" fill="#4d4b4b" stroke-width="0" /><path d="M264 768L264 792L288 792L288 768Z" fill="#4d4b4b" stroke-width="0" /><path d="M456 768L456 792L480 792L480 768Z" fill="#4d4b4b" stroke-width="0" /><path d="M480 768L480 792L504 792L504 768Z" fill="#4d4b4b" stroke-width="0" /><path d="M240 792L240 816L264 816L264 792Z" fill="#4d4b4b" stroke-width="0" /><path d="M264 792L264 816L288 816L288 792Z" fill="#4d4b4b" stroke-width="0" /><path d="M456 792L456 816L480 816L480 792Z" fill="#4d4b4b" stroke-width="0" /><path d="M240 816L240 840L264 840L264 816Z" fill="#4d4b4b" stroke-width="0" /></svg>